<svg xmlns="http://www.w3.org/2000/svg" viewBox="0 0 917.98 1038.81"><defs><style>.cls-1{isolation:isolate;}.cls-2{mix-blend-mode:multiply;}.cls-10,.cls-11,.cls-12,.cls-13,.cls-14,.cls-15,.cls-16,.cls-17,.cls-18,.cls-19,.cls-20,.cls-21,.cls-22,.cls-23,.cls-24,.cls-25,.cls-26,.cls-27,.cls-28,.cls-29,.cls-3,.cls-30,.cls-31,.cls-32,.cls-33,.cls-34,.cls-35,.cls-36,.cls-37,.cls-38,.cls-39,.cls-4,.cls-5,.cls-6,.cls-7,.cls-8,.cls-9{fill:none;stroke-miterlimit:10;}.cls-3{stroke:#fff;}.cls-4{stroke:#f9f9f9;}.cls-5{stroke:#f4f4f4;}.cls-6{stroke:#eee;}.cls-7{stroke:#e9e9e9;}.cls-8{stroke:#e3e3e3;}.cls-9{stroke:#dedede;}.cls-10{stroke:#d8d8d8;}.cls-11{stroke:#d2d2d2;}.cls-12{stroke:#cdcdcd;}.cls-13{stroke:#c7c7c7;}.cls-14{stroke:#c2c2c2;}.cls-15{stroke:#bcbcbc;}.cls-16{stroke:#b7b7b7;}.cls-17{stroke:#b1b1b1;}.cls-18{stroke:#ababab;}.cls-19{stroke:#a6a6a6;}.cls-20{stroke:#a0a0a0;}.cls-21{stroke:#9b9b9b;}.cls-22{stroke:#959595;}.cls-23{stroke:#909090;}.cls-24{stroke:#8a8a8a;}.cls-25{stroke:#fbfbfb;}.cls-26{stroke:#f6f6f6;}.cls-27{stroke:#f2f2f2;}.cls-28{stroke:#e5e5e5;}.cls-29{stroke:#e1e1e1;}.cls-30{stroke:#dcdcdc;}.cls-31{stroke:#d4d4d4;}.cls-32{stroke:#cfcfcf;}.cls-33{stroke:#cbcbcb;}.cls-34{stroke:#bebebe;}.cls-35{stroke:#bababa;}.cls-36{stroke:#b5b5b5;}.cls-37{stroke:#adadad;}.cls-38{stroke:#a8a8a8;}.cls-39{stroke:#a4a4a4;}</style></defs><g class="cls-1"><g id="Layer_2" data-name="Layer 2"><g id="OBJECTS"><g class="cls-2"><path class="cls-3" d="M133.16,794.51a663.7,663.7,0,0,1,50.39-61.61c8-8.67,16.48-17.3,27.09-22.46,27.12-13.2,59.56-.38,85.12,15.65a351.18,351.18,0,0,1,64.7,52.23c19.22,19.72,36.47,42,59.75,56.68s55.25,20.12,77.76,4.26c13.38-9.44,21.45-25.11,24.5-41.2s1.55-32.71-1.06-48.88c-3-18.52-7.38-37.84-1.53-55.66,6-18.45,23.56-32.58,42.87-34.6,27.48-2.87,51.63,16.25,74.78,31.32,29.41,19.14,63.59,33.39,98.63,31.37s70.43-23.44,80.94-56.92"/><path class="cls-4" d="M136.78,801.7a614.43,614.43,0,0,1,49.71-60.39c7.91-8.47,16.29-16.87,26.72-21.95,20.95-10.21,45.06-5,66.68,5a182.06,182.06,0,0,1,17,9.06,341.78,341.78,0,0,1,64.16,49.76c19.14,18.88,36.32,40.42,59.36,54.57,12.92,7.93,28.23,13.36,43.3,14.34,13.14.84,26.17-1.77,37.06-9.22a49.74,49.74,0,0,0,5.52-4.37c10.69-9.7,17.18-23.66,20-38a106.57,106.57,0,0,0,1.78-13.86c.8-12.13-.14-24.41-1.53-36.4-2.18-19-5.1-38.51,1.48-56.29s23.33-31.4,42.18-33.47c26.82-2.94,50.49,15.08,73.13,29.09,1.78,1.1,3.58,2.19,5.4,3.25C676.25,709,707.36,720.13,739,717.57c33.68-2.73,67.47-24.05,77.23-56.77"/><path class="cls-5" d="M140.41,808.88a570.06,570.06,0,0,1,49-59.17c7.83-8.26,16.11-16.43,26.36-21.43,20.57-10,44.21-5.36,65.48,4A181.76,181.76,0,0,1,298,740.82a333.24,333.24,0,0,1,63.62,47.27c19.06,18,36.18,38.84,59,52.46,13.41,8,29.12,13.68,44.65,14.9,13.5,1,27-1.41,38.31-8.91a50.51,50.51,0,0,0,5.75-4.43c11.14-9.89,17.79-24.28,20.85-39a117.48,117.48,0,0,0,2-14.27c1-12.46.45-25.09-.44-37.37-1.39-19.54-2.86-39.17,4.48-56.94,7-16.87,23.09-30.21,41.49-32.33,26.17-3,49.34,13.91,71.47,26.86q2.63,1.53,5.28,3c26.84,14.82,56.94,24.71,87.27,21.48,32.34-3.44,64.51-24.64,73.52-56.61"/><path class="cls-6" d="M144,816.07a528.41,528.41,0,0,1,48.31-58c7.75-8,15.94-16,26-20.92,20.2-9.87,43.35-5.7,64.28,3a179.26,179.26,0,0,1,16.56,8A324.54,324.54,0,0,1,362.27,793c19,17.22,36,37.23,58.56,50.34,13.91,8.1,30,14,46,15.47,13.87,1.25,27.87-1.06,39.57-8.61a52.31,52.31,0,0,0,6-4.49c11.58-10.08,18.39-24.89,21.67-40.09a129.14,129.14,0,0,0,2.23-14.66c1.25-12.8,1.05-25.77.65-38.36-.58-20-.63-39.8,7.5-57.58,7.35-16.08,22.85-29,40.78-31.19,25.52-3.08,48.21,12.74,69.83,24.63q2.55,1.41,5.15,2.75c26.19,13.56,55.29,22.19,84.36,18.29,31-4.15,61.54-25.25,69.8-56.45"/><path class="cls-7" d="M147.67,823.26a489.39,489.39,0,0,1,47.62-56.74C203,758.68,211,751,220.92,746.11c19.83-9.69,42.49-6,63.08,2,5.63,2.2,11.11,4.73,16.33,7.4a315.85,315.85,0,0,1,62.54,42.3c18.89,16.39,35.93,35.62,58.17,48.24,14.41,8.18,30.9,14.31,47.36,16,14.24,1.46,28.72-.7,40.82-8.31a52,52,0,0,0,6.19-4.54c12-10.27,19-25.51,22.5-41.15a142,142,0,0,0,2.46-15.07c1.47-13.13,1.64-26.45,1.73-39.33.23-20.56,1.56-40.42,10.51-58.22,7.69-15.3,22.62-27.84,40.09-30,24.87-3.16,47.07,11.56,68.17,22.39,1.67.85,3.35,1.69,5,2.5,25.54,12.29,53.63,19.66,81.43,15.09,29.65-4.86,58.58-25.84,66.1-56.29"/><path class="cls-8" d="M151.3,830.45a453.75,453.75,0,0,1,46.92-55.52c7.57-7.64,15.58-15.15,25.27-19.9,19.45-9.53,41.64-6.38,61.88,1.06,5.54,2,10.94,4.35,16.11,6.83a307.92,307.92,0,0,1,62,39.83c18.81,15.55,35.82,34,57.77,46.12,14.92,8.26,31.8,14.64,48.72,16.59,14.61,1.66,29.57-.35,42.08-8a52.73,52.73,0,0,0,6.41-4.6c12.48-10.46,19.6-26.13,23.32-42.21a157,157,0,0,0,2.69-15.47c1.69-13.47,2.2-27.14,2.82-40.32,1-21.06,3.71-41,13.51-58.86,8-14.52,22.38-26.65,39.39-28.91,24.22-3.23,45.93,10.39,66.53,20.16q2.43,1.15,4.91,2.25c24.89,11,52,17.13,78.52,11.9,28.3-5.58,55.61-26.45,62.38-56.13"/><path class="cls-9" d="M154.92,837.63a422.24,422.24,0,0,1,46.24-54.3c7.48-7.43,15.39-14.71,24.9-19.38,19.08-9.36,40.78-6.72,60.68.06,5.46,1.84,10.78,4,15.88,6.28a299.17,299.17,0,0,1,61.45,37.35c18.73,14.72,35.73,32.33,57.38,44,15.43,8.32,32.69,15,50.06,17.14,15,1.87,30.43,0,43.34-7.7a52.55,52.55,0,0,0,6.64-4.67c12.92-10.63,20.21-26.73,24.14-43.27,1.25-5.27,2.18-10.59,2.91-15.87,1.92-13.79,2.8-27.82,3.91-41.29,1.78-21.58,5.84-41.62,16.52-59.5,8.22-13.76,22.15-25.47,38.7-27.78,23.57-3.29,44.79,9.22,64.88,17.93q2.37,1,4.78,2c24.24,9.77,50.32,14.61,75.61,8.7,26.95-6.29,52.65-27,58.66-56"/><path class="cls-10" d="M158.55,844.82a391.83,391.83,0,0,1,45.54-53.08c7.4-7.23,15.22-14.28,24.55-18.87,18.7-9.19,39.91-7.06,59.47-.93,5.37,1.66,10.61,3.62,15.65,5.72a290.82,290.82,0,0,1,60.91,34.86c18.65,13.89,35.64,30.68,57,41.9,15.93,8.38,33.58,15.27,51.41,17.7,15.35,2.08,31.28.38,44.59-7.39a52.68,52.68,0,0,0,6.87-4.73c13.36-10.82,20.81-27.35,25-44.33,1.32-5.41,2.32-10.86,3.14-16.27,2.14-14.13,3.39-28.51,5-42.28,2.58-22.08,7.92-42.21,19.53-60.14,8.41-13,21.9-24.28,38-26.64,22.91-3.36,43.65,8,63.22,15.7,1.54.61,3.1,1.19,4.66,1.75,23.6,8.5,48.67,12.08,72.69,5.51,25.6-7,49.69-27.65,54.95-55.81"/><path class="cls-11" d="M162.18,852A365,365,0,0,1,207,800.14c7.32-7,15-13.85,24.19-18.35,18.32-9,39-7.36,58.27-1.92,5.28,1.49,10.45,3.24,15.43,5.16a282.94,282.94,0,0,1,60.37,32.38c18.56,13.05,35.55,29,56.58,39.79,16.46,8.43,34.47,15.58,52.77,18.26,15.72,2.28,32.13.73,45.85-7.09a54.3,54.3,0,0,0,7.08-4.79c13.82-11,21.42-28,25.79-45.39,1.39-5.55,2.46-11.14,3.37-16.67,2.36-14.47,4-29.2,6.08-43.26,3.38-22.6,10-42.82,22.54-60.78,8.58-12.27,21.67-23.1,37.3-25.51,22.27-3.43,42.52,6.88,61.58,13.47q2.25.78,4.53,1.5c23,7.24,47,9.56,69.78,2.31,24.25-7.71,46.72-28.24,51.24-55.65"/><path class="cls-12" d="M165.81,859.2A338.49,338.49,0,0,1,210,808.54c7.22-6.81,14.85-13.41,23.82-17.83,17.95-8.86,38.19-7.7,57.07-2.92,5.19,1.32,10.28,2.88,15.2,4.6a275.68,275.68,0,0,1,59.83,29.9c18.48,12.23,35.47,27.33,56.19,37.68,17,8.49,35.36,15.9,54.12,18.82,16.08,2.49,33,1.09,47.1-6.78a55.47,55.47,0,0,0,7.31-4.85c14.26-11.2,22-28.58,26.61-46.46,1.45-5.67,2.6-11.41,3.59-17.07,2.58-14.8,4.57-29.88,7.17-44.23,4.19-23.11,12-43.45,25.55-61.43,8.71-11.55,21.44-21.92,36.61-24.37,21.61-3.5,41.37,5.7,59.92,11.24,1.47.44,2.93.86,4.41,1.25,22.31,6,45.37,7,66.86-.88,22.91-8.43,43.76-28.85,47.53-55.49"/><path class="cls-13" d="M169.44,866.38A315.33,315.33,0,0,1,212.89,817c7.14-6.61,14.68-13,23.46-17.33,17.58-8.68,37.33-8,55.87-3.9,5.1,1.13,10.12,2.51,15,4a268.12,268.12,0,0,1,59.28,27.42c18.4,11.39,35.4,25.63,55.8,35.57,17.5,8.52,36.25,16.21,55.46,19.38,16.46,2.69,33.84,1.44,48.37-6.48a55.94,55.94,0,0,0,7.53-4.92c14.71-11.38,22.63-29.19,27.43-47.51,1.52-5.81,2.75-11.68,3.82-17.47,2.8-15.14,5.16-30.57,8.26-45.22,5-23.62,14-44.08,28.55-62.07,8.8-10.84,21.2-20.73,35.91-23.23,21-3.57,40.24,4.53,58.28,9,1.42.36,2.85.69,4.28,1,21.66,4.72,43.72,4.51,64-4.08,21.56-9.13,40.79-29.45,43.81-55.33"/><path class="cls-14" d="M173.06,873.57a293.55,293.55,0,0,1,42.77-48.22c7-6.4,14.49-12.55,23.09-16.81,17.2-8.51,36.47-8.37,54.67-4.9,5,1,10,2.15,14.75,3.49a260.42,260.42,0,0,1,58.74,24.93c18.33,10.56,35.34,23.94,55.4,33.46,18,8.56,37.15,16.54,56.82,19.94,16.83,2.89,34.69,1.81,49.62-6.17a56.18,56.18,0,0,0,7.76-5c15.15-11.57,23.23-29.8,28.25-48.58,1.59-5.94,2.89-12,4-17.87,3-15.47,5.76-31.24,9.35-46.19,5.79-24.13,15.9-44.76,31.57-62.71,8.86-10.17,21-19.55,35.21-22.1,20.31-3.64,39.1,3.36,56.62,6.78,1.39.27,2.77.52,4.16.75,21,3.45,42.07,2,61-7.27,20.21-9.85,37.82-30,40.1-55.17"/><path class="cls-15" d="M176.69,880.76a272.73,272.73,0,0,1,42.07-47c7-6.2,14.32-12.12,22.73-16.3,16.83-8.35,35.62-8.71,53.47-5.89,4.93.78,9.79,1.77,14.52,2.93A253.93,253.93,0,0,1,367.69,837c18.24,9.73,35.27,22.22,55,31.35,18.56,8.58,38,16.85,58.17,20.5,17.2,3.09,35.54,2.16,50.87-5.87a57.28,57.28,0,0,0,8-5c15.6-11.75,23.84-30.42,29.08-49.64,1.66-6.08,3-12.23,4.27-18.27,3.25-15.8,6.38-31.92,10.44-47.18,6.64-24.62,17.78-45.46,34.57-63.35,8.91-9.5,20.72-18.36,34.52-21,19.65-3.71,37.95,2.19,55,4.56,1.34.18,2.69.35,4,.49C732,685.73,752,683,769.71,673.07c18.87-10.56,34.87-30.65,36.39-55"/><path class="cls-16" d="M180.32,887.94a254.4,254.4,0,0,1,41.37-45.78c6.88-6,14.14-11.69,22.37-15.78,16.46-8.18,34.76-9,52.27-6.89,4.84.6,9.63,1.41,14.3,2.37a247.38,247.38,0,0,1,57.66,20c18.16,8.9,35.21,20.51,54.61,29.24,19.1,8.6,38.92,17.17,59.52,21.06,17.56,3.3,36.39,2.52,52.13-5.56a58,58,0,0,0,8.2-5.1c16-11.94,24.44-31,29.9-50.7,1.73-6.22,3.17-12.5,4.5-18.67,3.47-16.14,7-32.61,11.52-48.16,7.45-25.14,19.64-46.21,37.58-64,8.94-8.87,20.49-17.18,33.82-19.83,19-3.77,36.82,1,53.33,2.33q2,.15,3.9.24c19.72.93,38.77-3.07,55.21-13.66,17.52-11.28,31.9-31.25,32.67-54.85"/><path class="cls-17" d="M184,895.13a236.37,236.37,0,0,1,40.68-44.56c6.79-5.79,14-11.26,22-15.27,16.08-8,33.91-9.4,51.07-7.88,4.75.42,9.46,1,14.07,1.81a240.76,240.76,0,0,1,57.12,17.49c18.08,8.06,35.16,18.78,54.21,27.13,19.65,8.6,39.82,17.48,60.87,21.62,17.94,3.5,37.25,2.87,53.39-5.26a59.84,59.84,0,0,0,8.43-5.16c16.49-12.13,25.05-31.65,30.73-51.77,1.79-6.35,3.3-12.77,4.71-19.07,3.7-16.47,7.57-33.29,12.61-49.14,8.25-25.64,21.45-47,40.59-64.63,9-8.24,20.25-16,33.13-18.69,18.35-3.84,35.68-.15,51.67.1,1.26,0,2.52,0,3.78,0,19.08-.33,37.12-5.59,52.3-16.86,16.16-12,28.93-31.85,29-54.69"/><path class="cls-18" d="M187.58,902.32a219.57,219.57,0,0,1,40-43.35c6.71-5.58,13.78-10.83,21.64-14.75,15.71-7.85,33.05-9.74,49.87-8.87,4.67.24,9.3.66,13.85,1.25a233.93,233.93,0,0,1,56.57,15c18,7.23,35.11,17,53.82,25,20.19,8.6,40.71,17.8,62.22,22.18,18.31,3.71,38.1,3.23,54.65-5a58.81,58.81,0,0,0,8.65-5.22c16.93-12.31,25.65-32.26,31.55-52.82,1.85-6.49,3.44-13,4.94-19.47,3.92-16.81,8.16-34,13.7-50.12,9.05-26.16,23.22-47.88,43.59-65.28,9-7.64,20-14.8,32.43-17.54,17.71-3.92,34.55-1.33,50-2.14,1.22-.07,2.44-.15,3.66-.26,18.42-1.6,35.46-8.12,49.37-20,14.82-12.7,26-32.45,25.25-54.54"/><path class="cls-19" d="M191.2,909.51a203.73,203.73,0,0,1,39.3-42.13,116.91,116.91,0,0,1,21.28-14.24c15.33-7.68,32.18-10.09,48.66-9.87,4.58.06,9.13.3,13.62.7a228.8,228.8,0,0,1,56,12.52c17.92,6.4,35.06,15.31,53.42,22.91,20.74,8.58,41.61,18.11,63.58,22.74,18.67,3.91,38.95,3.59,55.9-4.66a59.1,59.1,0,0,0,8.87-5.28c17.39-12.5,26.26-32.87,32.38-53.88,1.92-6.63,3.58-13.32,5.17-19.88,4.14-17.14,8.75-34.66,14.78-51.09,9.86-26.67,24.95-48.83,46.61-65.92,9-7.07,19.78-13.62,31.73-16.41,17.05-4,33.4-2.5,48.37-4.37q1.77-.23,3.54-.51c17.77-2.86,33.81-10.64,46.46-23.25,13.47-13.41,23-33,21.53-54.37"/><path class="cls-20" d="M194.83,916.69a190.06,190.06,0,0,1,38.6-40.91,122.9,122.9,0,0,1,20.92-13.73c15-7.5,31.33-10.42,47.46-10.85,4.49-.12,9-.07,13.39.13a223.45,223.45,0,0,1,55.5,10c17.83,5.56,35,13.55,53,20.79,21.29,8.55,42.5,18.44,64.93,23.3,19,4.12,39.8,3.95,57.15-4.35a60.35,60.35,0,0,0,9.1-5.34c17.83-12.69,26.86-33.49,33.2-54.95,2-6.76,3.72-13.59,5.39-20.27,4.37-17.48,9.35-35.34,15.88-52.08C620,741.31,636,718.64,659,701.92c8.95-6.51,19.54-12.43,31-15.27,16.4-4.06,32.26-3.67,46.72-6.6,1.14-.23,2.28-.48,3.41-.76a82.07,82.07,0,0,0,43.54-26.44c12.13-14.13,20-33.65,17.83-54.22"/><path class="cls-21" d="M198.46,923.88a176,176,0,0,1,37.91-39.69A127.79,127.79,0,0,1,256.92,871c14.58-7.33,30.47-10.8,46.26-11.85,4.4-.31,8.8-.43,13.17-.42a218.69,218.69,0,0,1,54.95,7.56c17.75,4.74,34.95,11.8,52.63,18.69,21.85,8.5,43.38,18.75,66.28,23.86,19.41,4.32,40.65,4.3,58.41-4a61.65,61.65,0,0,0,9.32-5.4c18.28-12.87,27.47-34.1,34-56,2.06-6.9,3.86-13.87,5.62-20.67,4.59-17.81,9.94-36,17-53.06,11.46-27.69,28.31-51,52.62-67.2a101.93,101.93,0,0,1,30.34-14.14c15.75-4.13,31.13-4.84,45.07-8.83,1.1-.32,2.2-.65,3.29-1a81.06,81.06,0,0,0,40.63-29.64c10.78-14.83,17.08-34.25,14.11-54"/><path class="cls-22" d="M202.09,931.07a163.64,163.64,0,0,1,37.21-38.48,137.34,137.34,0,0,1,20.19-12.7c14.21-7.17,29.61-11.14,45.05-12.84,4.32-.49,8.65-.81,12.95-1a214,214,0,0,1,54.41,5.08c17.67,3.9,34.9,10,52.23,16.57,22.42,8.45,44.28,19.07,67.63,24.42,19.78,4.53,41.51,4.66,59.67-3.74a62.9,62.9,0,0,0,9.55-5.46c18.72-13.06,28.07-34.72,34.84-57.08,2.13-7,4-14.13,5.84-21.07,4.82-18.14,10.54-36.71,18.05-54,12.27-28.19,30-52.14,55.63-67.84a117.91,117.91,0,0,1,29.65-13c15.1-4.2,30-6,43.42-11.06,1.06-.4,2.11-.82,3.16-1.26a80.68,80.68,0,0,0,37.72-32.84c9.43-15.54,14.11-34.84,10.39-53.89"/><path class="cls-23" d="M205.72,938.26A151.87,151.87,0,0,1,242.23,901a145.64,145.64,0,0,1,19.83-12.19A147.61,147.61,0,0,1,305.91,875q6.36-1,12.73-1.53A210.18,210.18,0,0,1,372.5,876c17.59,3.07,34.86,8.28,51.84,14.47,23,8.37,45.17,19.38,69,25,20.15,4.73,42.36,5,60.93-3.44a62.85,62.85,0,0,0,9.76-5.53c19.17-13.24,28.68-35.33,35.67-58.13,2.2-7.17,4.14-14.41,6.07-21.47,5-18.48,11.12-37.4,19.14-55,13.06-28.7,31.57-53.45,58.64-68.49a143,143,0,0,1,28.94-11.86c14.45-4.26,28.85-7.19,41.77-13.29,1-.48,2-1,3-1.51a81,81,0,0,0,34.8-36c8.09-16.26,11.15-35.45,6.69-53.73"/><path class="cls-24" d="M209.35,945.44c22.28-32.88,59-54.61,97.93-62.54s79.79-2.81,117.27,10.37c23.54,8.28,46.06,19.7,70.33,25.54s51.57,5.39,72.17-8.72c25.78-17.65,34.38-51,42.79-81.07,13.83-49.47,35.95-102.09,81.87-125.12,22.87-11.47,49.64-14.35,71.28-28,30-18.93,45-58.79,34.86-92.8"/></g><g class="cls-2"><path class="cls-24" d="M.86,799.77c-4.21-34,29.36-62.74,63.21-68s67.81,5.62,101.35,12.6,71.28,9.3,99.3-10.42c35.82-25.21,44.11-78.24,81-101.92,28.72-18.46,66.11-12.94,95.54.79,16.64,7.77,30.79,20.83,46.69,29.92C560,704,564.9,788.29,626.17,800.86c66.35,13.61,102.35-18.73,114.87-41.17,16-28.74,42.78-103.3-22.75-155.12-26.62-21.05-52.9-43.49-72.49-71.21-29.32-41.5-29.12-104.94,8.38-139.23,25.69-23.51,65.16-32.1,82.62-62.23,11.74-20.26,10.13-46.37,0-67.49S709.19,226.59,690.1,213"/><path class="cls-23" d="M2.38,801.46c-2.91-35,30.48-65.2,65.34-71.21,34-5.87,68.55,5,102.09,12.66,33.15,7.62,70,11.08,97.89-6.84,35.67-22.94,45.71-73.28,82.51-96.65,29.32-18.52,66.12-15.07,96.25-3.07,17.3,6.89,32.64,19.2,49.3,28.43,70.61,39.12,76.41,120.69,136.36,133.09,64.47,13.31,100.27-17.31,113.28-39.38,16.49-28,42-99.82-19.91-151-25.53-21.12-50.85-44-70.12-71.53-28.46-40.52-28.71-101.71,6.68-135.7,24.48-23.52,62.53-33.1,79.92-62.84C753.9,317,753.16,291.29,744.35,270c-8.89-21.47-25.12-39.13-43.46-53.67"/><path class="cls-22" d="M3.9,803.16c-1.6-35.95,31.59-67.66,67.47-74.41,34.2-6.44,69.28,4.27,102.83,12.72,32.76,8.25,68.63,12.86,96.47-3.27,35.53-20.66,47.26-68.39,84.07-91.37,29.88-18.64,66.16-17.24,96.95-6.94,18,6,34.5,17.59,51.91,27,69,37.07,75.85,115.81,134.46,128,62.6,13,98.2-15.87,111.71-37.58,16.92-27.22,41.23-96.39-17.09-147-24.44-21.2-48.78-44.48-67.74-71.86-27.59-39.53-28.31-98.48,5-132.15,23.27-23.55,59.9-34.11,77.21-63.47,12.13-20.41,12.27-45.79,4.73-67.21-7.7-21.86-22.58-40.44-40.18-56"/><path class="cls-21" d="M5.42,804.86c-.3-36.93,32.71-70.1,69.6-77.61,34.38-7,70,3.58,103.57,12.77,32.37,8.87,67.3,14.65,95.06.32,35.38-18.39,48.83-63.47,85.62-86.1,30.45-18.73,66.23-19.42,97.66-10.8,18.7,5.13,36.34,16,54.52,25.45C578.84,704,586.72,779.83,644,791.88c60.73,12.71,96.12-14.44,110.13-35.8,17.35-26.45,40.46-93-14.25-142.89-23.37-21.31-46.65-45-65.37-72.2-26.61-38.62-27.9-95.28,3.28-128.61,22.07-23.59,57.2-35.15,74.51-64.08,12.28-20.52,13.36-45.54,7.06-67.08-6.49-22.25-20-41.74-36.89-58.28"/><path class="cls-20" d="M6.94,806.55c1-37.9,33.83-72.53,71.73-80.8,34.56-7.54,70.75,2.89,104.32,12.83,32,9.47,66,16.43,93.63,3.89C311.87,726.35,327,684,363.8,661.66c31-18.82,66.32-21.65,98.36-14.68,19.43,4.23,38.18,14.38,57.14,24C585,704.19,594,777,649.94,788.89c58.86,12.4,94-13,108.55-34,17.77-25.7,39.72-89.67-11.42-138.82-22.3-21.43-44.56-45.55-63-72.52-25.72-37.66-27.5-92.11,1.58-125.07,20.86-23.66,54.56-36.18,71.8-64.7,12.47-20.62,14.46-45.3,9.41-66.95-5.28-22.65-17.5-43-33.61-60.57"/><path class="cls-19" d="M8.46,808.25c2.31-38.88,34.95-75,73.86-84,34.74-8.07,71.48,2.18,105.06,12.89C219,747.2,252,755.41,279.6,744.61c35.12-13.78,52-53.59,88.73-75.54,31.62-18.9,66.44-23.9,99.07-18.54,20.16,3.31,40,12.77,59.74,22.48,64,31.44,74.14,101.18,128.75,112.89,57,12.1,91.92-11.58,107-32.22,18.18-24.95,39-86.41-8.58-134.74-21.24-21.58-42.49-46.07-60.62-72.86-24.83-36.69-27.11-89-.12-121.53,19.66-23.73,51.91-37.19,69.1-65.31,12.65-20.71,15.57-45.08,11.75-66.82-4.06-23.08-15-44.35-30.33-62.87"/><path class="cls-18" d="M10,810c3.61-39.86,36.07-77.37,76-87.2,34.92-8.59,72.22,1.47,105.8,12.94,31.18,10.66,63.34,20.07,90.8,11,35-11.49,53.6-48.64,90.29-70.26,32.21-19,66.57-26.18,99.77-22.41,20.91,2.38,41.83,11.19,62.36,21,62.19,29.7,73.56,96.31,126.84,107.84,55.12,11.8,89.82-10.15,105.39-30.42,18.57-24.2,38.27-83.22-5.76-130.67a600.92,600.92,0,0,1-58.23-73.18c-24-35.73-26.74-85.84-1.83-118,18.46-23.83,49.27-38.21,66.4-65.93,12.84-20.8,16.7-44.86,14.08-66.69-2.81-23.51-12.43-45.65-27-65.17"/><path class="cls-17" d="M11.5,811.65c4.91-40.84,37.19-79.78,78.12-90.4,35.1-9.1,72.95.75,106.54,13,30.8,11.23,62,21.86,89.39,14.62,34.83-9.2,55.19-43.68,91.84-65,32.8-19,66.71-28.49,100.48-26.28,21.66,1.43,43.65,9.61,65,19.51,60.38,28,73,91.43,124.93,102.79,53.25,11.5,87.71-8.73,103.81-28.63,19-23.46,37.59-80.1-2.93-126.6a715.25,715.25,0,0,1-55.85-73.51c-23.07-34.75-26.37-82.74-3.53-114.45,17.25-23.94,46.63-39.21,63.69-66.55a112.32,112.32,0,0,0,16.43-66.54c-1.56-24-9.89-47-23.76-67.48"/><path class="cls-16" d="M13,813.34c6.21-41.81,38.32-82.16,80.25-93.58,35.29-9.61,73.69,0,107.28,13,30.41,11.8,60.68,23.64,88,18.2,34.69-6.92,56.79-38.73,93.4-59.71,33.39-19.12,66.85-30.83,101.18-30.14,22.41.45,45.46,8,67.59,18,58.54,26.4,72.41,86.55,123,97.74,51.37,11.19,85.58-7.31,102.22-26.85,19.34-22.71,36.95-77-.09-122.51C757.8,605.4,739.6,580,722.37,553.71c-22.18-33.77-26-79.67-5.23-110.9,16-24.08,44-40.23,61-67.17a122.42,122.42,0,0,0,18.77-66.41,136.67,136.67,0,0,0-20.48-69.78"/><path class="cls-15" d="M14.54,815c7.52-42.79,39.45-84.55,82.38-96.78,35.47-10.11,74.43-.73,108,13.1,30,12.37,59.35,25.44,86.56,21.78,34.53-4.63,58.39-33.76,94.95-54.42,34-19.2,67-33.21,101.89-34,23.16-.53,47.26,6.48,70.19,16.53,56.68,24.83,71.85,81.68,121.13,92.7,49.5,10.89,83.46-5.9,100.64-25.06,19.72-22,36.36-74.08,2.74-118.44-17-22.42-34.17-48.1-51.1-74.17-21.31-32.8-25.7-76.65-6.92-107.37,14.8-24.23,41.35-41.23,58.27-67.78a134.08,134.08,0,0,0,21.11-66.28,137.17,137.17,0,0,0-17.19-72.07"/><path class="cls-14" d="M16.06,816.74c8.82-43.76,40.58-86.93,84.51-100,35.66-10.6,75.17-1.48,108.76,13.16,29.64,12.92,58,27.22,85.14,25.36,34.39-2.36,60-28.8,96.51-49.15,34.58-19.26,67.14-35.6,102.59-37.88,23.92-1.54,49.06,4.94,72.81,15,54.79,23.31,71.27,76.8,119.22,87.64,47.63,10.59,81.32-4.48,99.07-23.26,20.07-21.25,35.82-71.19,5.57-114.37-15.9-22.7-32.1-48.6-48.73-74.5C721.07,527,716.12,485.15,732.89,455c13.56-24.41,38.72-42.25,55.57-68.4,13.61-21.14,21.41-44.05,23.45-66.15A138.3,138.3,0,0,0,798,246.06"/><path class="cls-13" d="M17.58,818.43c10.12-44.73,41.71-89.29,86.64-103.17,35.85-11.08,75.92-2.23,109.5,13.22,29.26,13.46,56.69,29,83.73,28.93,34.23-.08,61.59-23.83,98.06-43.87,35.17-19.32,67.28-38,103.3-41.75,24.66-2.56,50.84,3.41,75.42,13.56,52.88,21.82,70.7,71.92,117.32,82.59,45.75,10.29,79.18-3.08,97.48-21.47,20.43-20.53,35.35-68.38,8.4-110.29-14.8-23-30-49.11-46.35-74.83-19.57-30.83-25.12-70.68-10.32-100.29,12.3-24.61,36.09-43.25,52.86-69,13.81-21.22,22.63-43.85,25.8-66a139.56,139.56,0,0,0-10.63-76.67"/><path class="cls-12" d="M19.1,820.13c11.43-45.71,42.84-91.65,88.77-106.37,36-11.55,76.67-3,110.24,13.27,28.89,14,55.35,30.79,82.31,32.52,34.08,2.18,63.2-18.86,99.62-38.6,35.77-19.38,67.41-40.44,104-45.61,25.41-3.6,52.63,1.9,78,12.06,51,20.39,70.11,67.14,115.42,77.55,43.86,10.07,77-1.68,95.9-19.68,20.78-19.82,35-65.65,11.24-106.22-13.68-23.38-28-49.61-44-75.16-18.7-29.84-24.89-67.74-12-96.74,11-24.84,33.47-44.26,50.16-69.64,14-21.29,23.86-43.63,28.13-65.87a141.08,141.08,0,0,0-7.34-79"/><path class="cls-11" d="M20.62,821.83c12.73-46.69,44-94,90.9-109.57,36.24-12,77.43-3.77,111,13.33,28.52,14.53,54,32.57,80.9,36.09,33.93,4.46,64.8-13.88,101.17-33.31s67.53-42.9,104.71-49.49c26.15-4.64,54.4.41,80.64,10.58,49,19,69.54,62.26,113.51,72.5,42,9.77,74.88-.29,94.32-17.9,21.12-19.11,34.66-63,14.07-102.14-12.5-23.77-25.91-50.1-41.6-75.48-17.84-28.86-24.7-64.82-13.72-93.21C766.2,448.16,787.34,428,804,403c14.2-21.37,25.1-43.42,30.47-65.74A142.87,142.87,0,0,0,830.37,256"/><path class="cls-10" d="M22.14,823.53c14-47.67,45.12-96.35,93-112.77,36.43-12.49,78.18-4.55,111.71,13.39,28.15,15.05,52.69,34.34,79.48,39.67,33.78,6.72,66.42-8.91,102.73-28,37-19.49,67.65-45.36,105.41-53.36,26.88-5.69,56.16-1,83.26,9.09,47.07,17.62,69,57.39,111.61,67.45,40.11,9.47,72.71,1.1,92.74-16.1,21.44-18.41,34.45-60.39,16.9-98.06-11.28-24.21-23.85-50.61-39.23-75.82-17-27.86-24.55-61.92-15.42-89.66,8.34-25.33,28.22-46.26,44.75-70.87,14.41-21.46,26.37-43.2,32.82-65.61a144.82,144.82,0,0,0-.78-83.57"/><path class="cls-9" d="M23.66,825.22c15.34-48.64,46.27-98.68,95.17-116,36.63-13,78.94-5.34,112.45,13.44,27.79,15.58,51.36,36.12,78.07,43.25,33.63,9,68-3.92,104.28-22.76,37.58-19.53,67.75-47.82,106.12-57.22,27.6-6.76,57.91-2.49,85.86,7.6,45.11,16.28,68.4,52.51,109.71,62.4,38.25,9.16,70.55,2.47,91.16-14.31,21.77-17.73,34.36-57.84,19.73-94-10-24.66-21.8-51.09-36.85-76.15-16.14-26.86-24.45-59-17.12-86.12,6.93-25.6,25.6-47.26,42-71.48,14.61-21.53,27.63-43,35.15-65.48A147,147,0,0,0,852,262.57"/><path class="cls-8" d="M25.18,826.92c16.64-49.62,47.42-101,97.3-119.16,36.83-13.4,79.72-6.14,113.2,13.5,27.42,16.09,50,37.89,76.64,46.83,33.49,11.24,69.64,1.06,105.84-17.49C456.35,731,486,700.3,525,689.51c28.32-7.83,59.66-3.89,88.48,6.12,43.15,15,67.83,47.62,107.8,57.35,36.38,8.85,68.38,3.83,89.58-12.52,22.1-17.05,34.39-55.32,22.57-89.92-8.6-25.15-19.76-51.58-34.48-76.47-15.3-25.87-24.41-56.15-18.82-82.58,5.47-25.87,23-48.26,39.34-72.1,14.83-21.61,28.91-42.73,37.5-65.35a149.41,149.41,0,0,0,5.79-88.17"/><path class="cls-7" d="M26.7,828.62C44.64,778,75.27,725.29,126.13,706.26c37-13.85,80.5-7,113.94,13.56,27.07,16.59,48.72,39.61,75.23,50.4,33.36,13.44,71.25,6.06,107.4-12.21,38.79-19.6,67.92-52.79,107.52-65,29-8.92,61.4-5.26,91.09,4.62,41.17,13.71,67.27,42.67,105.89,52.31,34.53,8.47,66.21,5.18,88-10.73,22.43-16.38,34.54-52.81,25.4-85.84a327.21,327.21,0,0,0-32.1-76.81c-14.46-24.86-24.41-53.25-20.52-79,3.95-26.14,20.37-49.25,36.64-72.72,15-21.68,30.18-42.47,39.83-65.2a152.1,152.1,0,0,0,9.09-90.48"/><path class="cls-6" d="M28.22,830.31C47.46,778.75,78,724.67,129.78,704.76c37.25-14.3,81.28-7.76,114.68,13.61,26.72,17.1,47.39,41.4,73.81,54,33.22,15.71,72.87,11,109-6.93,39.4-19.64,68-55.29,108.22-68.83,29.74-10,63.12-6.57,93.7,3.14,39.21,12.46,66.71,37.79,104,47.25,32.65,8.17,64,6.54,86.42-8.94,22.74-15.71,34.8-50.26,28.23-81.76a267.3,267.3,0,0,0-29.73-77.13c-13.63-23.86-24.47-50.34-22.21-75.5,2.36-26.4,17.74-50.25,33.92-73.34C845,408.57,861.25,388.1,872,365.25a155,155,0,0,0,12.37-92.78"/><path class="cls-5" d="M29.74,832c20.55-52.54,50.89-108,103.69-128.74,37.46-14.76,82.08-8.58,115.42,13.66,26.38,17.6,46.07,43.18,72.4,57.56,33.08,18,74.52,16.12,110.51-1.65,40.05-19.59,68.05-57.79,108.93-72.69,30.43-11.1,64.83-7.85,96.31,1.65C674.24,713,703.13,734.71,739.09,744c30.78,7.87,61.85,7.87,84.84-7.15s35.19-47.67,31.06-77.68c-3.66-26.64-13.66-53-27.35-77.47-12.8-22.85-24.57-47.39-23.91-72,.7-26.62,15.17-51.21,31.22-73.95,15.5-21.8,32.75-42,44.52-64.94a158,158,0,0,0,15.65-95.07"/><path class="cls-4" d="M31.26,833.71c21.85-53.52,52.08-110.18,105.82-131.94,37.69-15.14,82.88-9.41,116.16,13.72,26,18.09,44.74,45,71,61.14,32.94,20.25,76.12,21.08,112.07,3.62C476.94,760.6,504.4,720,545.92,703.69c31.12-12.19,66.54-9.05,98.93.16,35.27,10,65.56,28,100.18,37.16,28.91,7.56,59.67,9.19,83.26-5.36,23.38-14.42,35.7-45,33.9-73.61-1.7-27.06-11.65-53.5-25-77.8-12-21.84-24.71-44.4-25.61-68.41-1-26.82,12.54-52.23,28.51-74.57,15.7-21.88,34-41.67,46.86-64.81a161.14,161.14,0,0,0,18.94-97.37"/><path class="cls-3" d="M32.78,835.41c23.15-54.5,53.22-112.56,108-135.14C178.61,684.63,224.42,690,257.63,714c25.71,18.59,43.41,46.75,69.57,64.72,32.79,22.53,77.72,26,113.62,8.9C482.07,768,509,724.87,551.16,707.24c31.8-13.3,68.22-10.2,101.54-1.33s65,23.16,98.28,32.11c27,7.26,57.48,10.5,81.67-3.57,23.7-13.78,36.29-42.13,36.73-69.54s-9.64-54-22.6-78.12c-11.17-20.83-24.88-41.37-27.31-64.88-2.79-27,9.91-53.23,25.81-75.18s35.32-41.39,49.2-64.68a164.46,164.46,0,0,0,22.22-99.67"/></g><g class="cls-2"><path class="cls-3" d="M429.25,1038.39c-29.14-18-30.5-62.19-13.41-91.89s46.86-49.33,73.32-71.1,51.9-49.73,54.09-83.92c2.79-43.72-33.35-83.4-28.72-127,3.61-33.95,31.34-59.63,60.47-74,16.48-8.11,35.52-10.95,52.57-17.65,77.35-30.37,146.1,18.66,194.29-21.22,52.18-43.19,49.52-91.51,39.88-115.33-12.35-30.5-53.72-98.06-135.16-79.45-33.09,7.56-67,14-100.92,11.89-50.71-3.15-100-43.05-103.27-93.76-2.22-34.75,15.81-70.9,3.26-103.38-8.44-21.84-29.79-36.95-52.57-42.32s-46.81-2.14-69.33,4.25"/><path class="cls-25" d="M431.53,1038.26c-29.09-19.65-31.73-64.6-14.57-95.54,16.74-30.2,46.8-50.33,73.83-71.64,26.71-21.06,52.46-47.58,56-80.58,4.47-42.18-28.48-81.54-23.64-124.87,3.94-34.45,29.67-61,57.91-76.93,16.21-9.17,35.42-13.42,53-20.62,74.73-30.53,141.94,16,189.16-22.9,50.77-41.92,49.34-89,40.28-113-11.47-30.38-51.48-95.28-130.2-79.11-32.46,6.67-66.14,12.07-99.69,9.83-49.4-3.2-97.26-41.33-101.58-90.21-3-33.82,13.38-69.48,1.09-101.67-8.38-22-28.9-37.59-51-44.05-22.32-6.52-46.24-4.94-69.07.25"/><path class="cls-26" d="M433.8,1038.14c-29-21.27-32.94-67-15.72-99.2,16.41-30.7,46.73-51.33,74.33-72.19,26.95-20.36,53-45.43,57.89-77.23,6.16-40.64-23.7-79.69-18.54-122.77,4.18-35,28-62.36,55.33-79.91,16-10.26,35.32-15.87,53.52-23.59,72.15-30.57,137.78,13.44,184-24.58C874,498,873.79,452.19,865.33,428.06c-10.61-30.25-49.29-92.53-125.26-78.77-31.84,5.77-65.23,10.16-98.45,7.78-48.1-3.26-94.49-39.63-99.89-86.67-3.77-32.9,10.95-68.06-1.08-99.95-8.32-22.24-28-38.25-49.44-45.79-21.85-7.69-45.66-7.73-68.79-3.75"/><path class="cls-27" d="M436.08,1038c-29-22.9-34.14-69.42-16.89-102.87C435.28,904,465.85,882.82,494,862.43c27.18-19.68,53.58-43.28,59.79-73.9,7.84-39.1-18.87-77.82-13.46-120.67,4.48-35.47,26.35-63.79,52.76-82.88,15.72-11.37,35.22-18.32,54-26.55,69.59-30.53,133.63,10.83,178.9-26.27,48-39.37,49-84,41.1-108.26-9.75-30.1-47.14-89.8-120.31-78.41-31.25,4.86-64.33,8.14-97.22,5.71-46.78-3.45-91.74-37.94-98.19-83.13-4.56-32,8.44-66.61-3.27-98.22-8.3-22.43-27.12-38.94-47.86-47.53-21.4-8.87-45.09-10.53-68.53-7.75"/><path class="cls-6" d="M438.35,1037.9c-28.91-24.53-35.34-71.81-18-106.53,15.78-31.66,46.58-53.34,75.35-73.27,27.42-19,54.14-41.13,61.7-70.55,9.52-37.56-14-76-8.37-118.58,4.78-36,24.68-65.25,50.18-85.85,15.47-12.5,35.13-20.76,54.48-29.52,67.07-30.38,129.47,8.22,173.78-27.94,46.54-38.11,48.76-81.44,41.49-105.91-8.89-29.95-45-87.14-115.35-78.07-30.67,3.95-63.43,6.19-96,3.66-45.47-3.55-89-36.27-96.5-79.59-5.36-31.08,6-65.18-5.44-96.5-8.26-22.63-26.25-39.64-46.29-49.27-21-10.08-44.51-13.33-68.26-11.76"/><path class="cls-7" d="M440.63,1037.78c-28.86-26.16-36.53-74.21-19.2-110.2,15.47-32.13,46.48-54.35,75.86-73.81,27.63-18.3,54.76-39,63.6-67.2,11.27-36-9.18-74.1-3.29-116.48,5.08-36.49,23-66.76,47.61-88.83,15.22-13.65,35-23.18,55-32.49,64.58-30.16,125.31,5.61,168.65-29.62,45.13-36.83,48.56-78.9,41.9-103.55-8.06-29.8-42.93-84.52-110.41-77.73-30.11,3-62.51,4.25-94.75,1.6-44.16-3.63-86.32-34.59-94.8-76-6.18-30.19,3.53-63.76-7.62-94.78-8.21-22.83-25.38-40.37-44.72-51-20.53-11.3-43.94-16.12-68-15.76"/><path class="cls-28" d="M442.9,1037.66c-28.8-27.79-37.7-76.59-20.35-113.86,15.18-32.6,46.39-55.37,76.37-74.35,27.84-17.64,55.32-36.8,65.5-63.86,13-34.46-4.33-72.25,1.8-114.39,5.38-37,21.3-68.29,45-91.8,15-14.81,34.93-25.6,55.43-35.46,62.11-29.86,121.15,3,163.52-31.3,43.72-35.56,48.35-76.36,42.3-101.2-7.22-29.64-40.88-82-105.45-77.38a600.73,600.73,0,0,1-93.52-.45c-42.85-3.72-83.65-32.94-93.11-72.5-7-29.31,1.09-62.34-9.79-93.06-8.16-23-24.5-41.12-43.15-52.75-20.09-12.54-43.37-18.92-67.74-19.76"/><path class="cls-29" d="M445.18,1037.53c-28.75-29.41-38.88-79-21.51-117.52C438.56,887,470,863.62,500.54,845.12c28.05-17,55.89-34.64,67.4-60.51,14.66-32.92.53-70.39,6.9-112.3,5.69-37.5,19.58-69.85,42.46-94.77,14.68-16,34.84-28,55.91-38.43,59.67-29.5,117,.4,158.39-33,42.31-34.3,48.14-73.83,42.71-98.85-6.4-29.48-39.76-87.7-100.5-77-28.66,5-60.71.37-92.29-2.52-41.54-3.8-81-31.28-91.41-69-7.86-28.44-1.36-60.91-12-91.33A112.39,112.39,0,0,0,536.56,113c-19.65-13.79-42.8-21.7-67.47-23.75"/><path class="cls-30" d="M447.45,1037.41c-28.69-31-40-81.34-22.66-121.18,14.61-33.52,46.17-57.43,77.38-75.44,28.25-16.3,56.45-32.48,69.3-57.16,16.34-31.37,5.39-68.53,12-110.21,6-38,17.85-71.42,39.89-97.74,14.4-17.19,34.75-30.4,56.39-41.39C737,505.2,792.56,532.07,833,499.63c40.91-33,47.92-71.29,43.12-96.49-5.59-29.31-37.64-86-95.55-76.69-28.23,4.53-59.81-1.57-91.06-4.58-40.23-3.87-78.41-29.63-89.72-65.41-8.72-27.58-3.79-59.49-14.15-89.61a122.28,122.28,0,0,0-40-56.24,136.63,136.63,0,0,0-67.21-27.75"/><path class="cls-10" d="M449.73,1037.29c-28.64-32.66-41.19-83.72-23.82-124.85,14.34-34,46.06-58.46,77.88-76,28.45-15.66,57-30.33,71.21-53.82,18-29.83,10.26-66.67,17.07-108.11,6.32-38.51,16.09-73,37.31-100.72,14.1-18.4,34.67-32.78,56.87-44.36,54.86-28.62,108.67-4.83,148.13-36.34,39.5-31.75,47.69-68.74,43.52-94.14-4.78-29.13-35.49-84.17-90.6-76.34-27.84,4-58.9-3.5-89.83-6.63-38.91-3.94-75.83-28-88-61.87-9.61-26.72-6.23-58.07-16.32-87.89a134.23,134.23,0,0,0-38.43-58,137.29,137.29,0,0,0-67-31.75"/><path class="cls-31" d="M452,1037.17c-28.58-34.29-42.33-86.09-25-128.51,14.09-34.43,46-59.51,78.4-76.52,28.64-15,57.57-28.17,73.11-50.48,19.7-28.28,15.13-64.8,22.15-106C607.33,636.63,615,601,635.43,572c13.78-19.61,34.58-35.15,57.33-47.33,52.49-28.1,104.52-7.43,143-38,38.09-30.49,47.45-66.2,43.93-91.79-4-29-33.3-82.28-85.65-76-27.52,3.31-58-5.43-88.6-8.69-37.6-4-73.31-26.35-86.32-58.32-10.53-25.87-8.67-56.65-18.5-86.17-7.94-23.85-20.92-44.28-36.86-59.72a138.37,138.37,0,0,0-66.68-35.75"/><path class="cls-32" d="M454.28,1037.05c-28.53-35.92-43.47-88.45-26.14-132.17C442,870,474,844.31,507.05,827.81c28.82-14.37,58.12-26,75-47.13,21.38-26.73,20-62.94,27.25-103.92,7-39.52,12.52-76.25,32.17-106.66,13.46-20.83,34.51-37.5,57.81-50.3,50.14-27.54,100.36-10,137.88-39.69,36.68-29.22,47.21-63.64,44.34-89.44-3.21-28.78-31.15-70.39-80.7-75.64-27.22-2.89-57.1-7.36-87.37-10.75-36.29-4.07-70.83-24.7-84.63-54.79-11.47-25-11.09-55.23-20.67-84.44-7.89-24.05-20-45.11-35.29-61.46a139.62,139.62,0,0,0-66.42-39.76"/><path class="cls-33" d="M456.55,1036.93c-28.47-37.55-44.59-90.82-27.29-135.84,13.58-35.33,45.7-61.63,79.41-77.6,29-13.75,58.68-23.86,76.91-43.79,23.06-25.19,24.9-61.07,32.33-101.83,7.31-40,10.71-77.87,29.6-109.63C660.63,546.18,682,528.41,705.8,515c47.82-27,96.26-12.58,132.75-41.38,35.33-27.87,47-61.09,44.74-87.08-2.43-28.61-29.26-68.38-75.74-75.3-26.8-4-56.2-9.28-86.14-12.81-35-4.12-68.39-23-82.93-51.24C626,223,625,193.36,615.63,164.45c-7.83-24.26-19.06-45.94-33.72-63.2a141.13,141.13,0,0,0-66.16-43.76"/><path class="cls-13" d="M458.83,1036.8c-28.42-39.17-45.71-93.17-28.45-139.49,13.33-35.78,45.56-62.71,79.92-78.15,29.19-13.12,59.22-21.7,78.81-40.44,24.73-23.66,29.78-59.21,37.42-99.73s8.87-79.51,27-112.61c12.77-23.29,34.41-42.14,58.77-56.23,45.51-26.31,92.1-15.19,127.62-43.06,33.92-26.6,46.69-58.54,45.15-84.72-1.67-28.43-27.38-66.48-70.8-75-26.36-5.15-55.29-11.2-84.9-14.86-33.67-4.17-66-21.36-81.24-47.7-13.47-23.27-15.95-52.4-25-81C615.37,139.38,605,117.07,591,98.91a142.9,142.9,0,0,0-65.89-47.76"/><path class="cls-14" d="M461.11,1036.68c-28.37-40.8-46.83-95.53-29.61-143.16,13.09-36.22,45.43-63.79,80.42-78.69,29.37-12.5,59.78-19.55,80.72-37.09,26.4-22.12,34.67-57.35,42.5-97.64,8-41,7-81.13,24.46-115.58C672,540,694,520.09,718.84,505.32c43.22-25.65,87.94-17.8,122.49-44.73,32.52-25.34,46.41-56,45.55-82.38C886,350,861.4,313.52,821,303.6c-25.93-6.37-54.39-13.11-83.67-16.92C705,282.47,673.73,267,657.82,242.52c-14.52-22.36-18.37-51-27.2-79.27-7.69-24.68-17.15-47.62-30.58-66.68a144.73,144.73,0,0,0-65.62-51.76"/><path class="cls-34" d="M463.38,1036.56c-28.3-42.42-47.93-97.88-30.76-146.82,12.86-36.67,45.29-64.89,80.93-79.23,29.55-11.9,60.33-17.4,82.61-33.75,28.07-20.59,39.57-55.48,47.6-95.55,8.32-41.52,5.16-82.76,21.88-118.55,12-25.75,34.35-46.7,59.72-62.17,40.95-25,83.77-20.41,117.36-46.41,31.1-24.07,46.13-53.44,46-80-.17-28.08-23.55-63-60.89-74.26-25.48-7.68-53.49-15-82.44-19C714.3,276.56,684,262.89,667.5,240.2c-15.61-21.44-20.8-49.56-29.38-77.55-7.62-24.89-16.18-48.46-29-68.42a147,147,0,0,0-65.35-55.76"/><path class="cls-35" d="M465.66,1036.44c-28.25-44.05-49-100.24-31.92-150.49,12.63-37.11,45.15-66,81.43-79.77,29.73-11.3,60.88-15.25,84.52-30.4,29.74-19.06,44.46-53.61,52.68-93.45,8.67-42,3.29-84.4,19.31-121.53,11.64-27,34.35-48.94,60.2-65.13,38.7-24.25,79.61-23,112.23-48.1,29.69-22.81,45.83-50.89,46.37-77.66.56-27.91-21.58-61.46-56-73.92-25-9.06-52.58-16.92-81.2-21-29.75-4.28-59.05-16.15-76.16-37.07-16.74-20.47-23.22-48.15-31.55-75.83-7.55-25.1-15.19-49.3-27.44-70.16a149.47,149.47,0,0,0-65.09-59.76"/><path class="cls-36" d="M467.93,1036.32c-28.19-45.68-50.11-102.59-33.08-154.15,12.41-37.55,45-67.1,81.95-80.32,29.9-10.7,61.4-13.15,86.42-27.05,31.38-17.59,49.36-51.75,57.77-91.36,9-42.52,1.4-86,16.73-124.5,11.24-28.22,34.37-51.15,60.68-68.1,36.47-23.51,75.4-25.71,107.11-49.77,28.23-21.6,45.52-48.36,46.76-75.32,1.29-27.73-19.52-60-51-73.57a327.77,327.77,0,0,0-80-23.1c-28.44-4.3-56.8-14.33-74.46-33.52-17.9-19.46-25.64-46.73-33.73-74.11-7.48-25.31-14.2-50.14-25.87-71.91a152.09,152.09,0,0,0-64.83-63.76"/><path class="cls-17" d="M470.21,1036.2C442.07,988.89,419,931.25,436,878.39c12.19-38,44.88-68.22,82.46-80.86,30.07-10.12,62-11,88.32-23.72,33.06-16,54.26-49.87,62.85-89.26,9.39-43-.49-87.63,14.16-127.47,10.84-29.45,34.42-53.32,61.16-71.07,34.26-22.75,71.24-28.31,102-51.45,26.82-20.33,45.2-45.81,47.17-73,2-27.57-17.38-58.62-46-73.23a267.1,267.1,0,0,0-78.75-25.15c-27.13-4.33-54.56-12.47-72.76-30-19.09-18.37-28-45.31-35.9-72.38-7.41-25.52-13.2-51-24.3-73.65a155,155,0,0,0-64.56-67.76"/><path class="cls-37" d="M472.48,1036.08c-28.08-48.94-52.26-107.3-35.39-161.48,12-38.44,44.74-69.35,83-81.4,30.25-9.54,62.52-8.85,90.23-20.37,34.74-14.51,59.24-48,67.94-87.17,9.83-43.49-2.4-89.25,11.59-130.44,10.41-30.67,34.5-55.45,61.62-74,32.09-22,67.09-30.92,96.86-53.13,25.41-19.06,44.88-43.27,47.58-70.6s-15.11-57.3-41.09-72.88c-23.06-13.83-49.89-22.58-77.52-27.22-25.83-4.34-52.33-10.54-71.07-26.44-20.3-17.23-30.41-43.92-38.08-70.67-7.27-25.73-12.17-51.8-22.72-75.38a158,158,0,0,0-64.3-71.76"/><path class="cls-38" d="M474.76,1036c-28-50.56-53.25-109.61-36.55-165.13,11.81-38.87,44.59-70.5,83.47-82,30.42-9,63.08-6.7,92.12-17,36.43-13,64.13-46.12,73-85.07,10.16-44-4.31-90.86,9-133.42,10-31.9,34.63-57.53,62.1-77,29.92-21.2,62.93-33.53,91.73-54.8,24-17.8,44.54-40.75,48-68.26,3.41-27.25-12.69-56-36.14-72.53-22.15-15.63-49-24.44-76.28-29.27-24.53-4.35-50.09-8.56-69.37-22.9-21.54-16-32.85-42.5-40.26-69C668.4,133.7,664.45,107,654.46,82.52a161.14,161.14,0,0,0-64-75.76"/><path class="cls-39" d="M477,1035.83c-28-52.18-54.39-112-37.7-168.8,11.55-39.32,44.45-71.64,84-82.48,30.6-8.4,63.64-4.55,94-13.68,38.1-11.44,69-44.26,78.12-83,10.48-44.5-6.24-92.47,6.44-136.39,9.56-33.12,34.8-59.56,62.58-80s58.77-36.14,86.6-56.49c22.6-16.52,44.2-38.22,48.39-65.9,4.1-27.1-10.11-54.68-31.19-72.19s-48.11-26.29-75-31.33c-23.23-4.34-47.83-6.52-67.68-19.35-22.76-14.72-35.27-41.08-42.43-67.23S673,105.59,663.53,80.18A164.51,164.51,0,0,0,599.76.42"/></g></g></g></g></svg>